<?xml version="1.0" encoding="UTF-8"?>
<svg version="1.1" xmlns="http://www.w3.org/2000/svg" width="242" height="209">
<path d="M0 0 C0.67981934 0.08362793 1.35963867 0.16725586 2.06005859 0.25341797 C34.50009445 4.34764972 62.75789512 18.01122498 83.296875 43.89453125 C89.59444058 52.07519243 93.86622663 59.84035864 97.0625 69.625 C97.31926514 70.40552734 97.57603027 71.18605469 97.84057617 71.99023438 C109.3743752 107.88455972 104.62438777 146.69058587 90 181 C88 184 88 184 85.76301861 184.66340065 C84.35178077 184.8638099 84.35178077 184.8638099 82.91203308 185.06826782 C81.8261408 185.22475422 80.74024853 185.38124062 79.62145042 185.54246902 C72.8891545 186.39302158 66.1533446 187.17455215 59.4074707 187.90771484 C57.76778113 188.08842877 56.1281234 188.26943185 54.48849487 188.45069885 C50.05924533 188.93947925 45.62954527 189.42405498 41.19973397 189.90771437 C36.51151634 190.42018743 31.82368132 190.93613929 27.13578796 191.4515686 C19.2352324 192.31968029 11.33438353 193.18508159 3.43334961 194.04882812 C-5.58576426 195.0348334 -14.60442611 196.02488807 -23.62283963 197.01727712 C-32.39823896 197.98283489 -41.17395418 198.94549355 -49.94980812 199.90690994 C-53.63095423 200.31022711 -57.31199952 200.71444516 -60.99295616 201.11948776 C-86.6440903 203.94064318 -112.31066962 206.55081618 -138 209 C-137.91564855 195.91748962 -137.82078522 182.83510185 -137.71247292 169.75276661 C-137.66251097 163.67821858 -137.61618074 157.60368794 -137.578125 151.52905273 C-137.54127117 145.66753487 -137.49491062 139.80616247 -137.44193649 133.94476891 C-137.42339313 131.7076847 -137.40828496 129.47056932 -137.39665604 127.23343849 C-137.37979287 124.10184433 -137.35075706 120.97058327 -137.31884766 117.83911133 C-137.31668747 116.91266312 -137.31452728 115.9862149 -137.31230164 115.0316925 C-137.23637318 109.20482549 -136.93185527 105.0579199 -132.78515625 100.640625 C-131.43744141 99.45726563 -131.43744141 99.45726563 -130.0625 98.25 C-129.57305908 97.8173584 -129.08361816 97.3847168 -128.5793457 96.93896484 C-124.45767798 93.32351315 -120.21464068 89.85804083 -115.94921875 86.4140625 C-112.5863153 83.66138127 -109.29070431 80.83818231 -106 78 C-101.01078981 73.70004869 -95.95778077 69.49513968 -90.84375 65.34375 C-87.52313406 62.60697862 -84.25956291 59.80893615 -81 57 C-75.98685227 52.68065728 -70.91462485 48.44902723 -65.77734375 44.27734375 C-62.09161247 41.25514777 -58.46255178 38.16852793 -54.83129883 35.08129883 C-51.46129684 32.22140505 -48.05964744 29.40737018 -44.625 26.625 C-40.84023098 23.54642695 -37.12646127 20.39972535 -33.44824219 17.19555664 C-32.15295411 16.06826645 -30.85413239 14.94502328 -29.55175781 13.82592773 C-26.65349721 11.33364486 -23.79700239 8.83163397 -21.0546875 6.16796875 C-14.08539338 -0.2832 -9.31928156 -1.27126612 0 0 Z " fill="#F4B508" transform="translate(138,0)"/>
<path d="M0 0 C0.67981934 0.08362793 1.35963867 0.16725586 2.06005859 0.25341797 C34.51647617 4.34971724 62.87924243 18.03507952 83.3671875 44 C86.84694918 48.51684543 89.96578875 52.63092371 92 58 C91.28166992 58.03955811 90.56333984 58.07911621 89.82324219 58.11987305 C82.07320351 58.64316946 74.78798061 59.97736672 67.25 61.8125 C66.11546387 62.08167236 64.98092773 62.35084473 63.81201172 62.62817383 C60.53866166 63.40817544 57.26870911 64.20079698 54 65 C53.15663086 65.20592773 52.31326172 65.41185547 51.44433594 65.62402344 C45.90705963 66.98267381 40.3824731 68.38956535 34.859375 69.8046875 C29.92965782 71.05647432 24.99998445 72.22490457 20.01953125 73.2578125 C10.91480209 75.19715797 1.87511103 77.39884144 -7.17303467 79.58462524 C-22.10410288 83.18989067 -37.03857606 86.73572098 -52.04760742 90.00317383 C-60.05507257 91.75777229 -67.99699105 93.72546446 -75.94018555 95.74902344 C-84.619982 97.943898 -93.34609042 99.89416242 -102.09179688 101.80712891 C-110.3027318 103.60670408 -118.48246752 105.51281617 -126.64331055 107.52758789 C-127.44164307 107.72215576 -128.23997559 107.91672363 -129.0625 108.1171875 C-129.75472656 108.28847168 -130.44695312 108.45975586 -131.16015625 108.63623047 C-133 109 -133 109 -136 109 C-136 115.27 -136 121.54 -136 128 C-136.33 128 -136.66 128 -137 128 C-137.05834353 124.77090994 -137.09371115 121.54195662 -137.125 118.3125 C-137.14175781 117.40048828 -137.15851563 116.48847656 -137.17578125 115.54882812 C-137.22035249 109.42028214 -137.15000608 105.2903063 -132.78515625 100.640625 C-131.43744141 99.45726563 -131.43744141 99.45726563 -130.0625 98.25 C-129.57305908 97.8173584 -129.08361816 97.3847168 -128.5793457 96.93896484 C-124.45767798 93.32351315 -120.21464068 89.85804083 -115.94921875 86.4140625 C-112.5863153 83.66138127 -109.29070431 80.83818231 -106 78 C-101.01078981 73.70004869 -95.95778077 69.49513968 -90.84375 65.34375 C-87.52313406 62.60697862 -84.25956291 59.80893615 -81 57 C-75.98685227 52.68065728 -70.91462485 48.44902723 -65.77734375 44.27734375 C-62.09161247 41.25514777 -58.46255178 38.16852793 -54.83129883 35.08129883 C-51.46129684 32.22140505 -48.05964744 29.40737018 -44.625 26.625 C-40.84023098 23.54642695 -37.12646127 20.39972535 -33.44824219 17.19555664 C-32.15295411 16.06826645 -30.85413239 14.94502328 -29.55175781 13.82592773 C-26.65349721 11.33364486 -23.79700239 8.83163397 -21.0546875 6.16796875 C-14.08539338 -0.2832 -9.31928156 -1.27126612 0 0 Z " fill="#F9CF6F" transform="translate(138,0)"/>
<path d="M0 0 C5.1572989 2.7935369 9.72308945 6.7665464 11.90625 12.27734375 C12.53089908 17.83381522 12.99389871 24.07230346 10.46875 29.21484375 C6.14254821 34.38518247 2.28575007 37.70186317 -4.51171875 38.859375 C-10.1774071 39.12049461 -14.92757599 39.03713317 -19.71875 35.77734375 C-24.77229536 31.13589007 -27.25315438 26.20497421 -27.59375 19.33984375 C-27.30362293 12.84700006 -25.26778416 7.45137791 -20.65625 2.83984375 C-14.33865972 -1.01234544 -7.17880643 -2.47775968 0 0 Z " fill="#D29128" transform="translate(119.09375,89.72265625)"/>
<path d="M0 0 C4.48521204 3.72177169 6.61187959 7.03802848 7.37109375 12.83203125 C7.52950201 19.94176657 6.75943277 24.58679899 2 30 C-1.94563849 33.84446827 -5.78265546 36 -11.39453125 36 C-16.55402702 35.62870195 -20.50130198 34.72289617 -25 32 C-25 31.34 -25 30.68 -25 30 C-25.66 30 -26.32 30 -27 30 C-27 29.34 -27 28.68 -27 28 C-27.66 28 -28.32 28 -29 28 C-32.10972747 21.91011703 -33.20234981 16.55584249 -31.42578125 9.82421875 C-30.71380107 7.82389349 -29.89307972 5.92517657 -29 4 C-28.649375 3.071875 -28.29875 2.14375 -27.9375 1.1875 C-20.83965293 -6.8261983 -8.27169301 -4.77989014 0 0 Z " fill="#D2912A" transform="translate(203,96)"/>
<path d="M0 0 C4.46876455 3.07848225 8.07974831 6.73924494 9.8125 11.9375 C10.26492135 18.7238203 9.37913957 23.63753483 5.0625 29.1875 C0.01842357 33.11067056 -4.84147242 34.62979392 -11.1875 33.9375 C-14.625 32.4375 -14.625 32.4375 -17.1875 30.9375 C-17.1875 30.2775 -17.1875 29.6175 -17.1875 28.9375 C-18.0846875 28.8446875 -18.0846875 28.8446875 -19 28.75 C-22.16010071 27.57624831 -22.72789317 25.93051401 -24.1875 22.9375 C-24.98384294 17.20526572 -24.97899056 11.7843113 -22.6875 6.4375 C-15.83961495 -0.41038505 -9.47521745 -3.15840582 0 0 Z " fill="#D29129" transform="translate(104.1875,153.0625)"/>
<path d="M0 0 C4.36629252 2.18314626 7.52338687 4.78058503 10 9 C11.15575599 13.72593372 11.43082122 17.6568515 9.9375 22.3125 C6.99051078 26.40025924 3.87852376 29.37382541 -1 31 C-6.58436309 31.36618774 -10.24336848 31.2767906 -15 28 C-18.99904854 24.29639568 -20.34803965 20.8729606 -20.5625 15.4375 C-20.23891157 9.05318781 -18.07647322 5.87871387 -13.375 1.625 C-8.80155451 -0.57702931 -4.99046524 -0.80465156 0 0 Z " fill="#D1912C" transform="translate(126,19)"/>
<path d="M0 0 C4.38335291 2.23811028 6.46950082 4.53920277 8.09375 9.31640625 C8.7770839 13.90450528 7.77141083 16.93793188 5.35546875 20.76953125 C2.41711885 24.37196643 -0.95163644 25.19707955 -5.40625 25.75390625 C-10.31138728 25.14076409 -13.27913723 23.14545187 -16.54296875 19.4765625 C-18.96772076 15.63447693 -18.75050789 11.68510581 -17.90625 7.31640625 C-13.98669079 0.46334046 -7.93750049 -2.84643973 0 0 Z " fill="#D1922C" transform="translate(186.90625,33.68359375)"/>
<path d="M0 0 C4.28132195 2.47365268 6.38873498 5.34523438 8 10 C8.2106444 14.28872005 7.48146911 17.23629037 5.1875 20.875 C1.69229513 24.27034187 -0.00564253 24.90529929 -4.9375 25.375 C-8.19969908 25.30182918 -9.07626728 24.95233295 -12 23.125 C-14 21 -14 21 -14 19 C-14.66 19 -15.32 19 -16 19 C-17.75962574 15.48074853 -17.67491866 11.83078834 -17 8 C-12.99899292 1.15017459 -7.94101851 -1.10335091 0 0 Z " fill="#D29129" transform="translate(171,152)"/>
<path d="M0 0 C2.97913217 1.53164422 5.07436663 3.251596 7 6 C7.9275535 11.84358705 6.8344668 15.85596766 4 21 C0.23076283 22.25641239 -3.10182091 22.73402641 -7 22 C-10.60977489 20.12954303 -13.29610151 17.85179449 -14.76171875 13.99609375 C-15.35054424 10.65941599 -15.12508728 8.29625936 -13.8125 5.1875 C-9.87926648 0.44049402 -6.28746959 -1.41147277 0 0 Z " fill="#D2912A" transform="translate(46,168)"/>
<path d="M0 0 C2.82275936 1.25455972 4.46288541 2.28384722 6.3125 4.75 C7.56295485 8.84239769 7.31523741 12.6129554 6.375 16.75 C4.41480141 19.9575977 2.51143355 20.7411842 -1 22 C-5.15673693 22.51047647 -7.20212466 22.47872521 -10.8125 20.3125 C-13.24170091 17.74448761 -14.30599704 16.47001481 -15 13 C-14.72495744 8.04923392 -13.95232402 4.90802988 -10.3125 1.4375 C-6.48271715 -0.22448124 -4.13415793 -0.52616555 0 0 Z " fill="#D39128" transform="translate(45,115)"/>
<path d="M0 0 C0.99 0.66 1.98 1.32 3 2 C3 2.66 3 3.32 3 4 C3.66 4 4.32 4 5 4 C6.55024464 7.10048928 6.28992015 9.57894218 6 13 C4.20437595 15.75329021 2.94745078 17.52627461 0 19 C-4.27134769 19.4835488 -6.29946115 19.48733137 -9.875 17 C-12.45831438 13.35296793 -13.48821595 10.47531284 -13 6 C-9.41068401 0.1828327 -6.64496194 -0.34973484 0 0 Z " fill="#D1922D" transform="translate(73,68)"/>
<path d="M0 0 C1.20446777 0.01047363 2.40893555 0.02094727 3.64990234 0.03173828 C5.60283203 0.04140625 5.60283203 0.04140625 7.59521484 0.05126953 C8.9754258 0.06798149 10.35563413 0.08491139 11.73583984 0.10205078 C13.12385436 0.11208072 14.51187574 0.12120655 15.89990234 0.12939453 C19.3037201 0.15303215 22.70719491 0.18598211 26.11083984 0.22705078 C26.11083984 0.55705078 26.11083984 0.88705078 26.11083984 1.22705078 C7.144839 3.33910077 -11.82204516 5.44303608 -30.79001999 7.5372858 C-39.59693728 8.50984747 -48.40354436 9.48507337 -57.20947266 10.46655273 C-64.88373039 11.32189305 -72.55852063 12.17225379 -80.23399472 13.01661199 C-84.29895915 13.46396445 -88.36361101 13.91382426 -92.42763519 14.36964607 C-96.25180385 14.79848608 -100.07664847 15.22067062 -103.90211868 15.63773537 C-105.3068651 15.79207631 -106.71134573 15.94885866 -108.11552811 16.10824966 C-110.03142545 16.32535831 -111.94840293 16.53287138 -113.86541748 16.73988342 C-114.93838451 16.85879472 -116.01135155 16.97770601 -117.11683273 17.10022068 C-119.66504649 17.21679789 -121.48296398 17.01322214 -123.88916016 16.22705078 C-116.24086096 14.64348222 -108.58698472 13.68693872 -100.82128906 12.92480469 C-97.04066292 12.86873049 -97.04066292 12.86873049 -93.88916016 11.22705078 C-91.01092323 11.03697853 -88.14569376 10.89809981 -85.26416016 10.78955078 C-71.25069639 11.09737479 -71.25069639 11.09737479 -58.88916016 7.22705078 C-56.07285792 7.01560786 -53.27198217 6.85076921 -50.45166016 6.72705078 C-45.00411873 6.71767417 -45.00411873 6.71767417 -39.88916016 5.22705078 C-38.52708198 5.0885767 -37.15944866 5.00200745 -35.79150391 4.94580078 C-34.58977539 4.88972656 -34.58977539 4.88972656 -33.36376953 4.83251953 C-31.66846376 4.76204493 -29.97315122 4.69173317 -28.27783203 4.62158203 C-24.25825375 4.82912117 -24.25825375 4.82912117 -20.88916016 3.22705078 C-17.4934558 2.99014117 -14.10499314 2.83063388 -10.70361328 2.70947266 C-6.22927026 2.49447703 -4.00769084 0.31495289 0 0 Z " fill="#EABC3F" transform="translate(160.88916015625,187.77294921875)"/>
<path d="M0 0 C0.33 0 0.66 0 1 0 C1.04636918 10.97898123 1.08189254 21.95793911 1.10362434 32.93699837 C1.11405524 38.03518257 1.12820187 43.13329971 1.15087891 48.23144531 C1.17263189 53.15272556 1.18457385 58.07394134 1.18975449 62.99526596 C1.19344582 64.8715097 1.20065407 66.74774997 1.21146011 68.62396622 C1.2260076 71.25475907 1.22797657 73.88528658 1.22705078 76.51611328 C1.23783661 77.67597496 1.23783661 77.67597496 1.24884033 78.85926819 C1.23200452 83.28939814 0.64326506 86.88311309 -1 91 C-1.33 91 -1.66 91 -2 91 C-1.89139596 81.94044922 -1.77856574 72.88096296 -1.66066074 63.82152843 C-1.60601084 59.6127301 -1.55269872 55.40392455 -1.50268555 51.19506836 C-1.0755189 15.39905524 -1.0755189 15.39905524 0 0 Z " fill="#E6B42D" transform="translate(2,109)"/>
<path d="M0 0 C4.940897 -0.52009442 7.95430509 -0.56115975 12 2.5 C14.74306044 5.1616454 14.99010047 5.93763299 15.625 9.9375 C15.23439451 14.08270114 14.00462859 17.36197033 12 21 C8.23076283 22.25641239 4.89817909 22.73402641 1 22 C-2.61508076 20.12679372 -5.33690029 17.86095724 -6.7265625 13.9609375 C-7.34096823 10.14590659 -7.25988391 7.19042434 -5 4 C-3.79550873 6.40898253 -4.023672 7.70947415 -4.1875 10.375 C-4.1924695 13.46106022 -4.11176748 14.79170605 -2.625 17.5625 C1.44289884 19.79015889 5.46168352 19.31179274 10 19 C11.58255197 14.67435795 12.45144652 10.571279 13 6 C10.03 6 7.06 6 4 6 C4.33 4.68 4.66 3.36 5 2 C3.35 1.67 1.7 1.34 0 1 C0 0.67 0 0.34 0 0 Z " fill="#D4921D" transform="translate(38,168)"/>
<path d="M0 0 C-3 1 -3 1 -6 0 C-7.64279217 -0.11792999 -9.29052694 -0.17511674 -10.9375 -0.1875 C-12.21947266 -0.20876953 -12.21947266 -0.20876953 -13.52734375 -0.23046875 C-18.35865204 0.21984277 -20.72680446 2.61769794 -24 6 C-24.99 6.495 -24.99 6.495 -26 7 C-27.06375135 10.19125404 -27.13335484 12.52470971 -27.125 15.875 C-27.12757813 16.90367188 -27.13015625 17.93234375 -27.1328125 18.9921875 C-27.00995061 21.774648 -26.62944236 24.29239874 -26 27 C-25.34 27 -24.68 27 -24 27 C-22.62926214 28.63604196 -21.29944744 30.30678061 -20 32 C-19.01769502 33.0173873 -18.02530403 34.02596117 -17 35 C-18.98 34.34 -20.96 33.68 -23 33 C-23 32.34 -23 31.68 -23 31 C-23.66 31 -24.32 31 -25 31 C-25 30.34 -25 29.68 -25 29 C-25.66 29 -26.32 29 -27 29 C-30.10972747 22.91011703 -31.20234981 17.55584249 -29.42578125 10.82421875 C-28.71380107 8.82389349 -27.89307972 6.92517657 -27 5 C-26.649375 4.071875 -26.29875 3.14375 -25.9375 2.1875 C-19.41379446 -5.177974 -7.96398323 -3.90072648 0 0 Z " fill="#D89818" transform="translate(201,95)"/>
<path d="M0 0 C0 0.66 0 1.32 0 2 C5.61 2.33 11.22 2.66 17 3 C13.47155381 5.35229746 10.47492447 5.64740375 6.375 6.10546875 C5.63169434 6.19379471 4.88838867 6.28212067 4.12255859 6.37312317 C2.55286747 6.5576249 0.98269707 6.73808773 -0.58789062 6.91479492 C-2.99232579 7.18663238 -5.39450658 7.4741973 -7.796875 7.76367188 C-9.32280726 7.94104788 -10.84884597 8.11751108 -12.375 8.29296875 C-13.09381348 8.37935104 -13.81262695 8.46573334 -14.55322266 8.55473328 C-17.77510459 8.90873494 -19.88304286 9.03898571 -23 8 C-22 7 -22 7 -18.125 6.8125 C-12.75660355 6.31271349 -8.85520811 4.00909064 -4.28515625 1.27734375 C-2 0 -2 0 0 0 Z " fill="#F3B410" transform="translate(23,200)"/>
<path d="M0 0 C0.33 0 0.66 0 1 0 C1.15857153 6.67233771 0.79065664 13.03483282 -0.25 19.625 C-0.38059814 20.47803711 -0.51119629 21.33107422 -0.64575195 22.20996094 C-1.93719012 30.271893 -3.83545187 38.13291137 -6 46 C-6.33 46 -6.66 46 -7 46 C-6.9112556 44.02008187 -6.80308438 42.0410327 -6.6875 40.0625 C-6.62949219 38.96035156 -6.57148438 37.85820312 -6.51171875 36.72265625 C-6.09479762 33.68963459 -5.5333746 31.50915655 -4.5 28.6875 C-2.76179239 23.76562793 -2.45333232 19.12415302 -2.3125 13.9375 C-2.27833984 13.07189453 -2.24417969 12.20628906 -2.20898438 11.31445312 C-2.12759886 9.21005613 -2.06210231 7.1050543 -2 5 C-1.34 5 -0.68 5 0 5 C0 3.35 0 1.7 0 0 Z " fill="#ECBD38" transform="translate(241,116)"/>
<path d="M0 0 C0 0.33 0 0.66 0 1 C-1.43739513 1.02712066 -2.87493863 1.04645067 -4.3125 1.0625 C-5.51326172 1.07990234 -5.51326172 1.07990234 -6.73828125 1.09765625 C-9 1 -9 1 -12 0 C-15.61333053 -0.30934578 -19.22725331 -0.50952135 -22.84765625 -0.71875 C-26 -1 -26 -1 -28 -2 C-31.48850298 -2.68068351 -33.412007 -2.38368222 -36.39453125 -0.4375 C-38.64784533 1.32256895 -40.84423249 3.12208697 -43 5 C-43.66 4.67 -44.32 4.34 -45 4 C-33.16952504 -9.69522683 -15.729735 -3.21460854 0 0 Z " fill="#F4D58E" transform="translate(161,4)"/>
<path d="M0 0 C0.99 0.33 1.98 0.66 3 1 C5.90994532 6.84708639 4.88903094 12.55086698 2.9921875 18.53515625 C1.76855507 21.57496752 0.436159 23.7922309 -2 26 C-2.99 26 -3.98 26 -5 26 C-5 26.66 -5 27.32 -5 28 C-8.73726697 30.49151132 -12.66783595 30.5545813 -17 30 C-19.48972801 29.18884568 -21.64672083 28.17663958 -24 27 C-23.67 26.34 -23.34 25.68 -23 25 C-22.319375 25.33 -21.63875 25.66 -20.9375 26 C-14.89232879 28.05793063 -9.82027641 26.8754729 -3.91796875 25.046875 C-1.49130006 23.72233893 -0.99520827 22.53850226 0 20 C0.556875 18.63875 0.556875 18.63875 1.125 17.25 C2.79092169 11.06229086 2.39209635 5.98024088 0 0 Z " fill="#EFB016" transform="translate(111,159)"/>
<path d="M0 0 C-2.31 0.66 -4.62 1.32 -7 2 C-4.69 2.33 -2.38 2.66 0 3 C0 3.66 0 4.32 0 5 C-0.65226562 5.03738281 -1.30453125 5.07476562 -1.9765625 5.11328125 C-8.80788733 5.62714197 -13.26269537 7.17513025 -19 11 C-18.875 9.1875 -18.875 9.1875 -18 7 C-14.9375 5.25 -14.9375 5.25 -12 4 C-12 3.01 -12 2.02 -12 1 C-3.96428571 -1.27678571 -3.96428571 -1.27678571 0 0 Z " fill="#F1B317" transform="translate(116,84)"/>
<path d="M0 0 C-5.20658419 2.94735197 -11.18000233 3.85723169 -16.9543457 5.1965332 C-19.0611485 5.68718525 -21.16429622 6.19176108 -23.26757812 6.69726562 C-24.60657138 7.01126842 -25.94575802 7.32444794 -27.28515625 7.63671875 C-29.10865601 8.06537231 -29.10865601 8.06537231 -30.96899414 8.50268555 C-34 9 -34 9 -37 8 C-31.29748376 4.19832251 -24.72147407 3.71397983 -18 4 C-18 3.01 -18 2.02 -18 1 C-15.02148438 1.04882812 -15.02148438 1.04882812 -12.04296875 1.09765625 C-7.93286357 0.90118851 -4.26714292 -0.08051213 0 0 Z " fill="#FECD5E" transform="translate(146,75)"/>
<path d="M0 0 C0.33 0 0.66 0 1 0 C1.05828635 4.20827473 1.093693 8.41644489 1.125 12.625 C1.14175781 13.81480469 1.15851563 15.00460938 1.17578125 16.23046875 C1.18222656 17.38417969 1.18867187 18.53789062 1.1953125 19.7265625 C1.20578613 20.78439941 1.21625977 21.84223633 1.22705078 22.93212891 C0.98270857 26.23363888 0.16882977 28.91412763 -1 32 C-1.33 32 -1.66 32 -2 32 C-2.4519779 21.27807975 -1.1148557 10.6459824 0 0 Z " fill="#F0B81F" transform="translate(2,168)"/>
<path d="M0 0 C1.44724673 2.89449346 0.87320603 5.53076258 0.64453125 8.7109375 C0.84726061 11.14550632 0.84726061 11.14550632 2.62109375 13.2734375 C5.69314039 15.50306741 7.49587229 15.41322294 11.25 15.25 C12.32765625 15.21390625 13.4053125 15.1778125 14.515625 15.140625 C15.33546875 15.09421875 16.1553125 15.0478125 17 15 C17 15.66 17 16.32 17 17 C13.23076283 18.25641239 9.89817909 18.73402641 6 18 C2.38491924 16.12679372 -0.33690029 13.86095724 -1.7265625 9.9609375 C-2.34096823 6.14590659 -2.25988391 3.19042434 0 0 Z " fill="#DC9A19" transform="translate(33,172)"/>
<path d="M0 0 C0 0.66 0 1.32 0 2 C-0.680625 2.02578125 -1.36125 2.0515625 -2.0625 2.078125 C-9.21861646 2.49683394 -15.7824544 3.77489375 -22.65429688 5.71582031 C-27.69873563 7.10042146 -27.69873563 7.10042146 -31 6 C-27.99133303 3.99422202 -26.35523925 3.54121497 -22.875 2.9375 C-19.63891608 2.58395374 -19.63891608 2.58395374 -17 1 C-15.08887553 0.76257503 -13.17015727 0.58502428 -11.25 0.4375 C-9.67992187 0.31181641 -9.67992187 0.31181641 -8.078125 0.18359375 C-5.37463715 0.02234511 -2.70709587 -0.03509198 0 0 Z " fill="#FBCA56" transform="translate(230,56)"/>
<path d="M0 0 C0 0.33 0 0.66 0 1 C-4.22862004 1.50469616 -8.45797659 2.00293584 -12.6875 2.5 C-14.48477539 2.71462891 -14.48477539 2.71462891 -16.31835938 2.93359375 C-17.47529297 3.06894531 -18.63222656 3.20429688 -19.82421875 3.34375 C-21.41882935 3.53227539 -21.41882935 3.53227539 -23.0456543 3.72460938 C-25.72045416 3.97394201 -28.31608769 4.05207267 -31 4 C-31 3.01 -31 2.02 -31 1 C-27.7085344 0.82920355 -24.4168034 0.66414653 -21.125 0.5 C-19.74828125 0.42845703 -19.74828125 0.42845703 -18.34375 0.35546875 C-12.22342541 0.05376261 -6.12743647 -0.05995861 0 0 Z " fill="#EBBE42" transform="translate(223,184)"/>
<path d="M0 0 C4.97333608 -0.29254918 8.0436971 -0.16504232 12 3 C14.56806792 6.42409056 14.29161921 9.84442619 14 14 C13 16.9375 13 16.9375 12 19 C11.34 19 10.68 19 10 19 C10.09539063 18.16855469 10.19078125 17.33710938 10.2890625 16.48046875 C10.39992188 15.39378906 10.51078125 14.30710938 10.625 13.1875 C10.74101563 12.10855469 10.85703125 11.02960938 10.9765625 9.91796875 C11.27460156 6.80375668 11.27460156 6.80375668 9 4 C6.82102508 2.99194445 6.82102508 2.99194445 4.375 2.3125 C3.55773438 2.06113281 2.74046875 1.80976562 1.8984375 1.55078125 C1.27195313 1.36902344 0.64546875 1.18726562 0 1 C0 0.67 0 0.34 0 0 Z " fill="#D99718" transform="translate(38,115)"/>
<path d="M0 0 C0.33 0.66 0.66 1.32 1 2 C-2.75086595 7.32380974 -6.57867772 10.41983135 -13 12 C-16.41758914 12.02379937 -19.64731921 11.64393869 -23 11 C-23 10.67 -23 10.34 -23 10 C-22.29875 9.98582031 -21.5975 9.97164062 -20.875 9.95703125 C-12.49674365 9.53584173 -7.60765941 7.33708496 -1.5 1.6875 C-1.005 1.130625 -0.51 0.57375 0 0 Z " fill="#D69519" transform="translate(207,120)"/>
<path d="M0 0 C0.75732422 0.0515625 1.51464844 0.103125 2.29492188 0.15625 C3.47344727 0.25292969 3.47344727 0.25292969 4.67578125 0.3515625 C5.47306641 0.40828125 6.27035156 0.465 7.09179688 0.5234375 C9.05801706 0.66472278 11.02326949 0.81936156 12.98828125 0.9765625 C12.98828125 1.3065625 12.98828125 1.6365625 12.98828125 1.9765625 C3.08828125 2.9665625 -6.81171875 3.9565625 -17.01171875 4.9765625 C-16.68171875 4.3165625 -16.35171875 3.6565625 -16.01171875 2.9765625 C-14.05078125 2.6328125 -14.05078125 2.6328125 -11.63671875 2.4765625 C-7.15854852 2.18482503 -4.45248231 -0.33477311 0 0 Z " fill="#EAB82E" transform="translate(17.01171875,204.0234375)"/>
<path d="M0 0 C1.92154764 0.9063904 3.83706654 1.82556804 5.75 2.75 C7.35101563 3.51570312 7.35101563 3.51570312 8.984375 4.296875 C11.86694755 5.92485639 13.80426309 7.54844908 16 10 C15.01 10.495 15.01 10.495 14 11 C14 10.34 14 9.68 14 9 C12.1746875 8.9071875 12.1746875 8.9071875 10.3125 8.8125 C5.82252792 8.2631949 3.82074244 6.59003583 1 3 C0.67 2.01 0.34 1.02 0 0 Z " fill="#F1D48B" transform="translate(181,12)"/>
<path d="M0 0 C0 3.67718093 -0.82184858 5.07076189 -3 8 C-4.65697379 8.69040574 -6.3255761 9.3530635 -8 10 C-10.44107951 11.88282848 -12.72789399 13.91778181 -15 16 C-15.66 15.67 -16.32 15.34 -17 15 C-5.47835991 4.44191344 -5.47835991 4.44191344 0 0 Z " fill="#F4D38B" transform="translate(39,72)"/>
<path d="M0 0 C-5.14255118 2.46413911 -9.33827928 3.41430475 -15 4 C-15.33 4.33 -15.66 4.66 -16 5 C-18.67058851 5.14115161 -21.32432238 5.04247107 -24 5 C-20.28809631 2.52539754 -16.86188638 1.81244125 -12.5625 0.8125 C-11.79873047 0.62236328 -11.03496094 0.43222656 -10.24804688 0.23632812 C-9.50748047 0.06166016 -8.76691406 -0.11300781 -8.00390625 -0.29296875 C-7.33174072 -0.4530542 -6.6595752 -0.61313965 -5.96704102 -0.77807617 C-3.73643754 -1.02973542 -2.12986947 -0.66240813 0 0 Z " fill="#EEB81E" transform="translate(47,100)"/>
<path d="M0 0 C1.32 0.33 2.64 0.66 4 1 C3.01 1.66 2.02 2.32 1 3 C-0.7666753 7.58794759 -1.53042176 12.25569255 0 17 C-0.99 16.67 -1.98 16.34 -3 16 C-3.08133791 14.08404032 -3.13934367 12.16708068 -3.1875 10.25 C-3.22230469 9.18265625 -3.25710937 8.1153125 -3.29296875 7.015625 C-2.97082786 3.69972145 -2.22851086 2.40983327 0 0 Z " fill="#EEAE17" transform="translate(32,116)"/>
<path d="M0 0 C0.99 0.33 1.98 0.66 3 1 C2.01 2.485 2.01 2.485 1 4 C0.01 4 -0.98 4 -2 4 C-2.3403125 4.8971875 -2.3403125 4.8971875 -2.6875 5.8125 C-4.3611297 8.60188284 -6.08817726 9.6168842 -9 11 C-9.66 10.67 -10.32 10.34 -11 10 C-5.555 5.05 -5.555 5.05 0 0 Z " fill="#F2D385" transform="translate(14,93)"/>
<path d="M0 0 C0.66 0.33 1.32 0.66 2 1 C0.8553125 2.0828125 0.8553125 2.0828125 -0.3125 3.1875 C-6.02687759 9.16766259 -6.59049955 13.93707738 -7 22 C-7.33 22 -7.66 22 -8 22 C-8.68853935 9.10901337 -8.68853935 9.10901337 -6.25 5.375 C-4.2716789 3.28677218 -2.41682684 1.5536744 0 0 Z " fill="#D59519" transform="translate(88,154)"/>
<path d="M0 0 C-0.0625 2.25 -0.0625 2.25 -1 5 C-3.24865149 6.86135162 -5.27982948 7.78061322 -8 9 C-8.99 8.67 -9.98 8.34 -11 8 C-9.54712339 6.66072279 -8.08752741 5.32873153 -6.625 4 C-5.81289063 3.2575 -5.00078125 2.515 -4.1640625 1.75 C-2 0 -2 0 0 0 Z " fill="#F5D184" transform="translate(53,62)"/>
<path d="M0 0 C4.875 0.875 4.875 0.875 6 2 C6.17830165 3.93208837 6.26793417 5.87271372 6.3125 7.8125 C6.34988281 8.87082031 6.38726562 9.92914063 6.42578125 11.01953125 C5.91002237 14.62984338 4.77702546 15.73784711 2 18 C2.33 17.34 2.66 16.68 3 16 C4.25564536 12.23306393 4.68174057 8.93189913 4 5 C2.16343011 2.03268602 2.16343011 2.03268602 0 0 Z " fill="#EFAF18" transform="translate(48,169)"/>
<path d="M0 0 C-6.88404159 3.86177943 -14.29888354 3.71257094 -22 4 C-18.5989125 1.73260834 -15.49364674 1.07762252 -11.5625 0.3125 C-10.89412109 0.17005859 -10.22574219 0.02761719 -9.53710938 -0.11914062 C-6.08640357 -0.80654585 -3.34010306 -1.272827 0 0 Z " fill="#EFB81D" transform="translate(176,70)"/>
<path d="M0 0 C-1.43862447 4.3158734 -4.39706267 6.3527892 -8 9 C-10.9375 10.375 -10.9375 10.375 -13 11 C-4.30232558 -0 -4.30232558 -0 0 0 Z " fill="#F2D48D" transform="translate(116,9)"/>
<path d="M0 0 C-6.19454359 4.12969572 -12.78496357 4.30062652 -20 4 C-20 3.67 -20 3.34 -20 3 C-17.41932437 2.30081695 -14.83627153 1.61538951 -12.25 0.9375 C-11.15558594 0.63875977 -11.15558594 0.63875977 -10.0390625 0.33398438 C-6.28968956 -0.63744407 -3.69725762 -1.15449387 0 0 Z " fill="#EFB61C" transform="translate(196,65)"/>
<path d="M0 0 C0.33 0.66 0.66 1.32 1 2 C-2.09990173 5.2475161 -4.00718143 6.96634513 -8.6875 7.125 C-10.3271875 7.063125 -10.3271875 7.063125 -12 7 C-12.33 6.34 -12.66 5.68 -13 5 C-12.09507812 4.83564453 -12.09507812 4.83564453 -11.171875 4.66796875 C-5.06315013 3.49202872 -5.06315013 3.49202872 0 0 Z " fill="#F2B315" transform="translate(176,172)"/>
<path d="M0 0 C0.66 0.66 1.32 1.32 2 2 C1.81476999 7.64951518 1.20723724 10.9202548 -3 15 C-3.66 15 -4.32 15 -5 15 C-4.67 14.01 -4.34 13.02 -4 12 C-3.34 12 -2.68 12 -2 12 C-1.34 8.04 -0.68 4.08 0 0 Z " fill="#D49418" transform="translate(177,160)"/>
<path d="M0 0 C0.33 0.99 0.66 1.98 1 3 C-4.82478551 6.03901852 -9.48208608 6.3540919 -16 6 C-16 5.67 -16 5.34 -16 5 C-15.43152344 4.97421875 -14.86304687 4.9484375 -14.27734375 4.921875 C-8.47497597 4.49565767 -4.8543149 3.20178217 0 0 Z " fill="#EFAE15" transform="translate(125,123)"/>
<path d="M0 0 C0.99 0.66 1.98 1.32 3 2 C3 2.66 3 3.32 3 4 C2.34 3.649375 1.68 3.29875 1 2.9375 C-3.0692807 1.66584978 -5.79619199 2.32196645 -10 3 C-10.99 3 -11.98 3 -13 3 C-8.50814656 -0.36889008 -5.4266032 -0.43762929 0 0 Z " fill="#DA9717" transform="translate(171,152)"/>
<path d="M0 0 C-3.41211416 2.27474277 -5.6568529 2.56629644 -9.6875 3.125 C-10.86699219 3.29257813 -12.04648438 3.46015625 -13.26171875 3.6328125 C-14.16535156 3.75398438 -15.06898437 3.87515625 -16 4 C-15 2 -15 2 -12.5 0.875 C-8.2443204 -0.1889199 -4.35855223 -0.17434209 0 0 Z " fill="#FECC5B" transform="translate(26,103)"/>
<path d="M0 0 C4.25883667 3.04202619 7.38603243 6.4839539 10 11 C10 11.66 10 12.32 10 13 C9.34 13 8.68 13 8 13 C7.896875 12.360625 7.79375 11.72125 7.6875 11.0625 C7.460625 10.381875 7.23375 9.70125 7 9 C6.01 8.67 5.02 8.34 4 8 C0 2.62857143 0 2.62857143 0 0 Z " fill="#F2D794" transform="translate(216,39)"/>
<path d="M0 0 C0.33 1.32 0.66 2.64 1 4 C0.01 4.33 -0.98 4.66 -2 5 C-1.67 8.3 -1.34 11.6 -1 15 C-3.40450178 12.59549822 -3.29609139 11.91766058 -3.3125 8.625 C-3.25687267 5.48458455 -3.11914878 4.20354584 -1.5 1.4375 C-0.7575 0.7259375 -0.7575 0.7259375 0 0 Z " fill="#DA991A" transform="translate(157,156)"/>
<path d="M0 0 C3.99996286 1.33332095 4.83782337 3.4957827 7 7 C6.05125 6.67 5.1025 6.34 4.125 6 C1.22937548 4.89840809 1.22937548 4.89840809 -1 5 C-0.67 3.35 -0.34 1.7 0 0 Z " fill="#F3D284" transform="translate(209,32)"/>
<path d="M0 0 C3.63 0 7.26 0 11 0 C11 0.33 11 0.66 11 1 C10.31292969 1.13277344 9.62585938 1.26554688 8.91796875 1.40234375 C7.56638672 1.66724609 7.56638672 1.66724609 6.1875 1.9375 C4.84751953 2.19853516 4.84751953 2.19853516 3.48046875 2.46484375 C0.88602829 2.97741153 0.88602829 2.97741153 -2 4 C-1.34 2.68 -0.68 1.36 0 0 Z " fill="#F2B217" transform="translate(89,151)"/>
<path d="M0 0 C0.66 0 1.32 0 2 0 C1.67 0.99 1.34 1.98 1 3 C0.34 3 -0.32 3 -1 3 C-1.33 3.99 -1.66 4.98 -2 6 C-3.65 6.33 -5.3 6.66 -7 7 C-4.66666667 4.66666667 -2.33333333 2.33333333 0 0 Z " fill="#F2D68E" transform="translate(101,20)"/>
<path d="M0 0 C2.375 0.625 2.375 0.625 5 2 C6.3125 5.125 6.3125 5.125 7 8 C3.64379729 6.61122646 1.92701272 5.08322035 0 2 C0 1.34 0 0.68 0 0 Z " fill="#F4D180" transform="translate(181,12)"/>
<path d="M0 0 C2.1640625 0.0234375 2.1640625 0.0234375 4.625 0.375 C5.85089844 0.54128906 5.85089844 0.54128906 7.1015625 0.7109375 C7.72804688 0.80632812 8.35453125 0.90171875 9 1 C4.8204355 3.78637633 2.85331323 2.79562512 -2 2 C-1.34 1.34 -0.68 0.68 0 0 Z " fill="#FDCE5E" transform="translate(34,98)"/>
<path d="M0 0 C-0.763125 0.45375 -1.52625 0.9075 -2.3125 1.375 C-4.23632814 2.53824492 -6.12941224 3.7529415 -8 5 C-7.67 3.35 -7.34 1.7 -7 0 C-3.86650268 -1.04449911 -3.01031744 -0.93423645 0 0 Z " fill="#F2B217" transform="translate(163,153)"/>
<path d="M0 0 C3.36720387 1.39332574 4.9859524 2.9789286 7 6 C3.75728494 5.4409112 2.06942576 4.5867822 0 2 C0 1.34 0 0.68 0 0 Z " fill="#D6941A" transform="translate(201,96)"/>
<path d="M0 0 C0 3 0 3 -1.5 4.6875 C-1.995 5.120625 -2.49 5.55375 -3 6 C-3.99 5.67 -4.98 5.34 -6 5 C-4.02 3.35 -2.04 1.7 0 0 Z " fill="#F0D58A" transform="translate(85,34)"/>
</svg>
